<svg width="73" height="40" viewBox="0 0 73 40" fill="none" xmlns="http://www.w3.org/2000/svg">
<g clip-path="url(#clip0_10_60)">
<path d="M28.2448 7.99785H19.7793C17.7691 18.0167 13.6896 38.3392 13.6573 38.4897C13.48 39.3711 12.7113 40 11.8084 40H7.06233C6.18085 40 5.51436 39.1938 5.69173 38.3284C7.72344 28.2182 9.74978 18.108 11.7815 7.99785H1.41868C0.521077 7.99785 -0.150786 7.18087 0.0265857 6.30476L0.951068 1.73072C1.14994 0.725611 2.03142 0 3.0634 0H29.8895C30.7818 0 31.4482 0.816985 31.2763 1.69309L30.3571 6.26713C30.1529 7.27224 29.266 7.99785 28.2448 7.99785Z" fill="#679A58"/>
<path d="M58.194 3.25731C57.3233 7.31536 56.5547 11.3949 55.7431 15.4691C55.684 15.7755 55.4099 16.0012 55.0981 16.0012H48.8632C48.229 16.0012 47.756 15.4153 47.8742 14.7972L48.9008 9.70182C49.0782 8.82033 48.4064 7.99797 47.5034 7.99797H42.4133C41.7361 7.99797 41.1502 8.47634 41.0159 9.14283L39.9463 14.4801C39.7689 15.367 38.9895 16.0012 38.0919 16.0012H32.4429C32.029 16.0012 31.7173 15.6196 31.7979 15.2111C32.8084 11.1638 33.5448 7.00362 34.308 2.88107C34.6144 1.20947 36.0763 0.00012207 37.7748 0.00012207H55.5281C57.2427 0.00012207 58.538 1.56959 58.194 3.25731Z" fill="#679A58"/>
<path d="M72.1956 2.3167L65.2566 27.654C65.1223 28.1538 64.6654 28.5032 64.144 28.5032H61.9134C61.2093 28.5032 60.6718 27.8744 60.774 27.181L64.5955 1.56422C64.7299 0.661235 65.4985 0.00012207 66.4069 0.00012207H70.4273C71.6366 0.00012207 72.5127 1.15035 72.1956 2.3167Z" fill="#CBD4C6"/>
<path d="M53.8726 24.7891C53.0449 28.9171 52.2172 33.045 51.3894 37.1675C51.0562 38.8176 49.6103 40.0001 47.928 40.0001H30.2177C28.4601 40.0001 27.1433 38.393 27.4872 36.6677C28.2989 32.6204 29.1105 28.5784 29.9275 24.5311C29.9866 24.2248 30.2607 23.999 30.5724 23.999H36.8019C37.5491 23.999 37.9683 24.2355 37.7909 25.203L36.6944 30.6639C36.5547 31.3573 37.0814 32.0022 37.7909 32.0022H43.5098C44.0419 32.0022 44.4988 31.626 44.6063 31.1046L45.7243 25.5147C45.9017 24.6333 46.681 23.999 47.5786 23.999H53.2223C53.6415 23.999 53.9533 24.3806 53.8726 24.7891Z" fill="#679A58"/>
<path d="M66.2993 32.9267L65.004 39.3766C64.9341 39.7421 64.617 40 64.2461 40H57.8285C57.3393 40 56.9685 39.5539 57.0652 39.0756L58.3606 32.6257C58.4358 32.2602 58.7529 32.0022 59.1238 32.0022H65.5414C66.0306 32.0022 66.3961 32.4483 66.2993 32.9267Z" fill="#CBD4C6"/>
<path d="M39.0326 23.9989C38.5435 23.9989 38.1726 23.5528 38.2693 23.0745L39.5701 16.6246C39.6399 16.2591 39.957 16.0011 40.3279 16.0011H46.7455C47.2347 16.0011 47.6002 16.4472 47.5034 16.9256L46.2081 23.3755C46.1382 23.741 45.8211 23.9989 45.4502 23.9989H39.0326Z" fill="#679A58"/>
</g>
<defs>
<clipPath id="clip0_10_60">
<rect width="72.2601" height="40" fill="white"/>
</clipPath>
</defs>
</svg>
