<svg width="538" height="698" viewBox="0 0 538 698" fill="none" xmlns="http://www.w3.org/2000/svg">
<path d="M536.791 56.8379C521.597 127.651 508.185 198.839 494.022 269.933C492.99 275.279 488.207 279.219 482.767 279.219H373.968C362.901 279.219 354.647 268.995 356.711 258.209L374.625 169.295C377.72 153.913 365.996 139.562 350.239 139.562H261.418C249.6 139.562 239.377 147.91 237.032 159.54L218.367 252.676C215.272 268.151 201.673 279.219 186.009 279.219H87.4339C80.2119 279.219 74.7719 272.559 76.1788 265.431C93.8117 194.806 106.661 122.211 119.98 50.2725C125.326 21.1032 150.837 0 180.475 0H490.27C520.19 0 542.794 27.3873 536.791 56.8379Z" fill="#679A58"/>
<path d="M461.382 432.569C446.938 504.601 432.494 576.633 418.05 648.572C412.235 677.366 387.005 698 357.648 698H48.6039C17.9339 698 -5.04512 669.956 0.957564 639.849C15.1201 569.224 29.2827 498.692 43.5391 428.067C44.5708 422.721 49.3542 418.781 54.7942 418.781H163.499C176.536 418.781 183.852 422.908 180.757 439.791L161.623 535.083C159.185 547.183 168.376 558.438 180.757 558.438H280.551C289.837 558.438 297.809 551.872 299.685 542.774L319.194 445.231C322.289 429.849 335.889 418.781 351.552 418.781H450.033C457.349 418.781 462.789 425.441 461.382 432.569Z" fill="#679A58"/>
<path d="M202.422 418.781C193.887 418.781 187.415 410.997 189.103 402.649L211.801 290.099C213.02 283.721 218.554 279.219 225.026 279.219H337.013C345.548 279.219 351.926 287.004 350.238 295.351L327.634 407.901C326.415 414.279 320.881 418.781 314.409 418.781H202.422Z" fill="#679A58"/>
</svg>
